<svg xmlns="http://www.w3.org/2000/svg" viewBox="0 0 1200 620" role="img" aria-labelledby="title desc"><title id="title">個人工作台 Skill 使用入口</title><desc id="desc">以工作夥伴和對話框說明從自然語言開始建立工作台</desc><style>.i{fill:#171717;font-family:'Noto Sans TC','Microsoft JhengHei',sans-serif}.h{font-size:31px;font-weight:900}.b{font-size:21px;font-weight:800}.s{font-size:16px;font-weight:700}.l{fill:none;stroke:#171717;stroke-width:7;stroke-linecap:round;stroke-linejoin:round}</style><rect width="1200" height="620" rx="28" fill="#fffdf7"/><path d="M35 548c190-25 344 23 554-9 216-33 390 28 581-4" class="l" stroke="#2563eb" stroke-width="3" opacity=".3"/><text x="48" y="62" class="i h">先說你的工作，再開始建立</text><text x="48" y="96" class="i b">工作夥伴會陪你把想法變成流程</text><g transform="translate(470 150)"><path d="M66 110q0-90 94-90t94 90v106H66Z" fill="#2563eb" stroke="#171717" stroke-width="7"/><circle cx="125" cy="100" r="9" fill="#fff"/><circle cx="195" cy="100" r="9" fill="#fff"/><path d="M128 143q34 30 68 0" class="l" stroke="#fff" stroke-width="5"/><rect x="45" y="207" width="230" height="98" rx="20" fill="#facc15" stroke="#171717" stroke-width="7"/><rect x="78" y="230" width="164" height="10" rx="5" fill="#171717"/><rect x="78" y="254" width="112" height="10" rx="5" fill="#171717"/><text x="69" y="350" class="i b">個人工作台 Skill</text></g><g transform="translate(55 148)"><path d="M22 22h300v126H84l-62 43v-43H22Z" fill="#dbeafe" stroke="#171717" stroke-width="7"/><text x="50" y="75" class="i h">新手</text><text x="50" y="116" class="i s">四項藍圖 → 第一個流程</text></g><g transform="translate(810 148)"><path d="M22 22h300v126H84l-62 43v-43H22Z" fill="#fee2e2" stroke="#171717" stroke-width="7"/><text x="50" y="75" class="i h">老手</text><text x="50" y="116" class="i s">規格 → 設計 → 開發</text></g><g transform="translate(55 390)"><path d="M22 22h300v126H84l-62 43v-43H22Z" fill="#fef3c7" stroke="#171717" stroke-width="7"/><text x="50" y="75" class="i h">先說問題</text><text x="50" y="116" class="i s">首頁太亂／想加提醒</text></g><g transform="translate(810 390)"><path d="M22 22h300v126H84l-62 43v-43H22Z" fill="#dcfce7" stroke="#171717" stroke-width="7"/><text x="50" y="75" class="i h">最後驗收</text><text x="50" y="116" class="i s">真的能操作並留下結果</text></g><path d="M377 245h72M751 245h-72M377 485h72M751 485h-72" class="l" stroke="#dc2626" stroke-width="5"/><path d="m430 231 21 14-21 14M698 231l-21 14 21 14M430 471l21 14-21 14M698 471l-21 14 21 14" class="l" stroke="#dc2626" stroke-width="5"/></svg>
